<?xml version="1.0" standalone="no"?>
<!DOCTYPE svg PUBLIC "-//W3C//DTD SVG 20010904//EN"
 "http://www.w3.org/TR/2001/REC-SVG-20010904/DTD/svg10.dtd">
<svg version="1.0" xmlns="http://www.w3.org/2000/svg"
 width="48.000000pt" height="48.000000pt" viewBox="0 0 48.000000 48.000000"
 preserveAspectRatio="xMidYMid meet">

<g transform="translate(0.000000,48.000000) scale(0.100000,-0.100000)"
fill="#ffffff" stroke="none">
<path d="M172 429 c-48 -14 -109 -80 -123 -131 -23 -89 12 -182 88 -229 57
-36 154 -34 210 3 62 41 88 90 88 168 0 77 -26 127 -85 166 -43 29 -125 39
-178 23z m131 -33 c106 -44 139 -181 63 -263 l-32 -35 -69 106 c-39 58 -76
106 -82 106 -9 0 -13 -23 -13 -80 0 -64 3 -80 15 -80 11 0 15 12 15 47 l0 47
55 -80 c59 -86 58 -92 -13 -93 -47 -1 -93 21 -129 62 -56 64 -56 150 0 214 53
60 122 78 190 49z"/>
<path d="M280 278 c1 -31 7 -61 15 -72 14 -18 15 -13 15 52 0 57 -3 72 -15 72
-11 0 -15 -12 -15 -52z"/>
</g>
</svg>
