<?xml version="1.0" standalone="no"?>
<!DOCTYPE svg PUBLIC "-//W3C//DTD SVG 20010904//EN"
 "http://www.w3.org/TR/2001/REC-SVG-20010904/DTD/svg10.dtd">
<svg version="1.0" xmlns="http://www.w3.org/2000/svg"
 width="180.000000pt" height="180.000000pt" viewBox="0 0 180.000000 180.000000"
 preserveAspectRatio="xMidYMid meet">

<g transform="translate(0.000000,180.000000) scale(0.100000,-0.100000)"
fill="#000000" stroke="none">
<path d="M0 900 l0 -900 900 0 900 0 0 900 0 900 -900 0 -900 0 0 -900z m554
209 c15 -12 40 -48 57 -80 16 -32 33 -59 38 -59 5 0 26 29 45 65 41 72 67 95
109 95 63 0 113 -53 98 -105 -3 -12 -44 -90 -91 -174 -85 -154 -109 -181 -160
-181 -51 0 -74 27 -162 189 -49 88 -88 172 -88 186 0 16 12 38 29 56 36 36 86
39 125 8z m644 7 c33 -17 202 -319 202 -360 0 -13 -11 -38 -24 -53 l-24 -28
-195 -3 -195 -3 -33 29 c-23 20 -32 38 -32 58 0 41 171 345 203 361 33 17 65
16 98 -1z"/>
</g>
</svg>
